{"title":"Centurion.2010.CUSTOM.SWESUB.DVDRip.XviD.AC3-Zen_Bud","uid":5762426,"size":1469663032,"categoryP":"video","categoryS":"movies","magnet":"?xt=urn:btih:66396309c571379213b6b96c798fecf91ba9eed4&amp;dn=Centurion.2010.CUSTOM.SWESUB.DVDRip.XviD.AC3-Zen_Bud&amp;tr=udp%3A%2F%2Ftracker.openbittorrent.com%3A80&amp;tr=udp%3A%2F%2Fopen.demonii.com%3A1337&amp;tr=udp%3A%2F%2Ftracker.coppersurfer.tk%3A6969&amp;tr=udp%3A%2F%2Fexodus.desync.com%3A6969","seeders":0,"leechers":0,"uploader":"Zen_Bud","files":-1,"time":1281774973,"description":"General\nComplete name                    : Centurion.2010.avi\nFormat                           : AVI\nFile size                        : 1.37 GiB\nDuration                         : 1h 33mn\nOverall bit rate                 : 2 096 Kbps\n\nVideo\n\nFormat                           : MPEG-4 Visual\nCodec ID/Hint                    : XviD\nDuration                         : 1h 33mn\nBit rate                         : 1 637 Kbps\nWidth                            : 720 pixels\nHeight                           : 436 pixels\nDisplay aspect ratio             : 2.35:1\nStream size                      : 1.07 GiB (78%)\nWriting library                  : XviD 1.1.2 (UTC 2006-11-01)\n\nAudio\n\nFormat                           : AC-3\nDuration                         : 1h 33mn\nBit rate                         : 448 Kbps\nChannel(s)                       : 6 channels\nChannel positions                : Front: L C R, Side: L R, LFE\nSampling rate                    : 48.0 KHz\nStream size                      : 300 MiB (21%)\n\n\nText:************ SSG - SweSUB Group  Incubator*****************","torrent":{"xt":"urn:btih:66396309c571379213b6b96c798fecf91ba9eed4","amp;dn":"Centurion.2010.CUSTOM.SWESUB.DVDRip.XviD.AC3-Zen_Bud","amp;tr":["udp%3A%2F%2Ftracker.openbittorrent.com%3A80","udp%3A%2F%2Fopen.demonii.com%3A1337","udp%3A%2F%2Ftracker.coppersurfer.tk%3A6969","udp%3A%2F%2Fexodus.desync.com%3A6969"],"infoHash":"66396309c571379213b6b96c798fecf91ba9eed4","infoHashBuffer":{"type":"Buffer","data":[102,57,99,9,197,113,55,146,19,182,185,108,121,143,236,249,27,169,238,212]},"announce":[],"urlList":[]}}